<svg xmlns="http://www.w3.org/2000/svg" xmlns:xlink="http://www.w3.org/1999/xlink" viewBox="0 0 200 200">
  <defs>
    <path id="a" d="M0 0h155.778894v142.320603H0z"/>
    <path id="c" d="M0 0h80.5778894v55.9628141H0z"/>
  </defs>
  <g fill="none" fill-rule="evenodd">
    <path d="M100 197.487437c-6.6160499 0-13.2271925-.666387-19.6497778-1.980621-6.2580971-1.280604-12.413738-3.191434-18.2959514-5.679398-5.7759922-2.443017-11.3471524-5.466971-16.5586807-8.98781-5.1626464-3.487822-10.0174755-7.493461-14.4296214-11.905582-4.4121153-4.412137-8.4177545-9.266962-11.905584-14.429616-3.5208256-5.211528-6.5447792-10.782689-8.9877996-16.558685-2.48796755-5.882209-4.39879973-12.03785-5.67939696-18.295947C3.17895041 113.227192 2.51256281 106.61605 2.51256281 100c0-6.6160499.6663876-13.2271925 1.98062533-19.6497778 1.28059723-6.2580971 3.19142941-12.413738 5.67939696-18.2959514 2.4430204-5.7759922 5.466974-11.3471524 8.9877996-16.5586807 3.4878295-5.1626464 7.4934687-10.0174755 11.905584-14.4296214 4.4121459-4.4121153 9.266975-8.4177545 14.4296214-11.905584 5.2115283-3.5208256 10.7826885-6.5447792 16.5586807-8.9877996 5.8822134-2.48796755 12.0378543-4.39879973 18.2959514-5.67939696C86.7728075 3.17895041 93.3839501 2.51256281 100 2.51256281c6.61605 0 13.227192.6663876 19.649778 1.98062533 6.258097 1.28059723 12.413738 3.19142941 18.295947 5.67939696 5.775996 2.4430204 11.347157 5.466974 16.558685 8.9877996 5.162654 3.4878295 10.017479 7.4934687 14.429616 11.905584 4.412121 4.4121459 8.41776 9.266975 11.905582 14.4296214 3.520839 5.2115283 6.544793 10.7826885 8.98781 16.5586807 2.487964 5.8822134 4.398794 12.0378543 5.679398 18.2959514C196.82105 86.7728075 197.487437 93.3839501 197.487437 100c0 6.61605-.666387 13.227192-1.980621 19.649778-1.280604 6.258097-3.191434 12.413738-5.679398 18.295947-2.443017 5.775996-5.466971 11.347157-8.98781 16.558685-3.487822 5.162654-7.493461 10.017479-11.905582 14.429616-4.412137 4.412121-9.266962 8.41776-14.429616 11.905582-5.211528 3.520839-10.782689 6.544793-16.558685 8.98781-5.882209 2.487964-12.03785 4.398794-18.295947 5.679398-6.422586 1.314234-13.033728 1.980621-19.649778 1.980621Z" fill="#c00000"/>
    <path d="M100 5.02512563c-6.4472064 0-12.8888844.64921163-19.1460844 1.92961573-6.0955949 1.24735616-12.0914019 3.10854504-17.8208701 5.53193214-5.6265673 2.3798343-11.0537889 5.3256854-16.1308864 8.7556925-5.0301863 3.3983087-9.7604876 7.3012002-14.0595402 11.6002529-4.2990527 4.2990526-8.2019442 9.0293539-11.6002529 14.0595402-3.4300071 5.0770975-6.3758582 10.5043191-8.7556925 16.1308864-2.4233871 5.7294682-4.28457598 11.7252752-5.53193214 17.8208701C5.67433726 87.1111156 5.02512563 93.5527936 5.02512563 100c0 6.447206.64921163 12.888884 1.92961573 19.146084 1.24735616 6.095595 3.10854504 12.091402 5.53193214 17.820871 2.3798343 5.626567 5.3256854 11.053788 8.7556925 16.130886 3.3983087 5.030186 7.3012002 9.760488 11.6002529 14.05954 4.2990526 4.299053 9.0293539 8.201944 14.0595402 11.600268 5.0770975 3.429992 10.5043191 6.375843 16.1308864 8.755678 5.7294682 2.423387 11.7252752 4.284575 17.8208701 5.531932 6.2572 1.280404 12.698878 1.929615 19.1460844 1.929615 6.447206 0 12.888884-.649211 19.146084-1.929615 6.095595-1.247357 12.091402-3.108545 17.820871-5.531932 5.626567-2.379835 11.053788-5.325686 16.130886-8.755678 5.030186-3.398324 9.760488-7.301215 14.05954-11.600268 4.299053-4.299052 8.201944-9.029354 11.600268-14.05954 3.429992-5.077098 6.375843-10.504319 8.755678-16.130886 2.423387-5.729469 4.284575-11.725276 5.531932-17.820871 1.280404-6.2572 1.929615-12.698878 1.929615-19.146084 0-6.4472064-.649211-12.8888844-1.929615-19.1460844-1.247357-6.0955949-3.108545-12.0914019-5.531932-17.8208701-2.379835-5.6265673-5.325686-11.0537889-8.755678-16.1308864-3.398324-5.0301863-7.301215-9.7604876-11.600268-14.0595402-4.299052-4.2990527-9.029354-8.2019442-14.05954-11.6002529-5.077098-3.4300071-10.504319-6.3758582-16.130886-8.7556925-5.729469-2.4233871-11.725276-4.28457598-17.820871-5.53193214-6.2572-1.2804041-12.698878-1.92961573-19.146084-1.92961573ZM100 0c55.228474 0 100 44.7715414 100 100 0 55.228474-44.771526 100-100 100C44.7715414 200 0 155.228474 0 100 0 44.7715414 44.7715414 0 100 0Z" fill="#FFF" fill-rule="nonzero"/>
    <g transform="translate(21.60804 34.81809)">
      <mask id="b" fill="#fff">
        <use xlink:href="#a"/>
      </mask>
      <g mask="url(#b)" fill="#f2f2f2">
        <path d="M43.8462312 105.232161c-.3487438-.522613-.6572865-.942714-.8753769-1.232161l-.2552764-.334673c-.0552764-.081407-.0854271-.122613-.0854271-.122613s-.1005026.177889-.2512563.491457c-.1507538.313568-.3467337.756784-.5527638 1.315578-.5299425 1.405523-.8575039 2.879211-.9728644 4.376884-.0615306.869432.0010745 1.743197.1859297 2.594975.1786327.892276.4867482 1.753645.9145728 2.556784.1085428.201005.2281407.40201.3547739.603015.1380503.193005.2866868.378213.4452261.554774.3271659.369998.6867177.710041 1.0743719 1.01608.8616727.675428 1.8357222 1.193583 2.8773869 1.530654 1.2753821-1.08999 1.8535891-2.789533 1.5075377-4.431156-.1379211-.845968-.3855702-1.670339-.7366834-2.452261-.0874372-.201005-.1819095-.40201-.279397-.608041-.0974874-.20603-.1738693-.41608-.2673367-.6201-.1882747-.41206-.3892797-.81407-.603015-1.20603-.4201005-.78392-.8874372-1.517588-1.3326634-2.188945-.40201-.703518-.7919597-1.324623-1.1447236-1.844221M37.5417085 101.884422l-.1427135-.60804a21.21912035 21.21912035 0 0 0-.6934674-2.271357c-.122613-.3447234-.2653266-.6693465-.3758794-.9859294-.1105527-.3165829-.201005-.6221105-.3015075-.8954774-.3899497-1.0934673-.718593-1.7748744-.718593-1.7748744a16.96784504 16.96784504 0 0 0-1.2060301 1.59799 18.29144753 18.29144753 0 0 0-1.0633166 1.7869347 11.71356064 11.71356064 0 0 0-.9226131 2.2341705c-.2371952.810163-.3815056 1.644669-.4301507 2.487438a8.52661988 8.52661988 0 0 0 .0180904 1.291457 5.43417074 5.43417074 0 0 0 .0854272.645226c.0472362.201005.1065326.41407.1738693.61608.2798709.850978.7180457 1.641397 1.2914573 2.329649.3060459.377493.658205.715133 1.0482412 1.005025.4407919.310735.9094679.579895 1.4.80402 1.4206754-.83255 2.3075706-2.342669 2.3427136-3.988945.0740893-.81664.0433538-1.639405-.0914573-2.448241-.0670017-.41407-.1514238-.821441-.2532663-1.222111-.0512563-.201005-.1005025-.40201-.1648242-.603015M25.6562814 99.892462c.3393882.361483.7141221.68807 1.118593.974875 1.5518065-.577311 2.7408928-1.85205 3.2090452-3.4402012.1085427-.358794.2241206-.7447236.3145729-1.1366834a11.04424844 11.04424844 0 0 0 .201005-1.1899498 15.54070667 15.54070667 0 0 0 .0552764-2.3849246 19.41108131 19.41108131 0 0 0-.0874372-2.2713568c-.0633166-.7035176-.1758794-1.3346733-.201005-1.8994975a17.06533128 17.06533128 0 0 0-.2512563-1.8180904 18.51859042 18.51859042 0 0 0-1.5306533 1.3567839 20.61008619 20.61008619 0 0 0-1.4482412 1.5527638c-.2472362.3015076-.5145729.6221106-.7407035.9507538-.2261307.3286432-.4512563.6773869-.6552764 1.0361809-.4263897.7297522-.7743896 1.5025611-1.0381909 2.3055276a9.52563975 9.52563975 0 0 0-.3085428 1.2341709 6.87035164 6.87035164 0 0 0-.043216 1.2241206c.0432996.8383504.2570306 1.6590772.6281407 2.4120603.1964471.4053519.4593786.7749509.7778894 1.0934669M19.0331658 89.6231157a6.532662 6.532662 0 0 0 .8201005 1.0934673c1.6392836-.3283565 3.0586722-1.3447675 3.8974875-2.7909547.1005025-.1648242.201005-.3346734.2894472-.5025126.0884422-.1678392.1899498-.3527638.281407-.5346734a11.9798643 11.9798643 0 0 0 .4673367-1.1165829 14.57285542 14.57285542 0 0 0 .6120603-2.2894472 21.92159036 21.92159036 0 0 0 .4221106-2.2160804c.0492462-.3487437.0854271-.6814071.1165829-.9959799.0311558-.3145729.0452261-.6030151.0894472-.8854272a17.56782322 17.56782322 0 0 0 .1487437-1.8281407s-.7266331.4020101-1.7547738 1.1226131c-.5145729.3628141-1.1055277.8040201-1.7155779 1.3155779a16.29649033 16.29649033 0 0 0-1.7547739 1.721608 13.62614029 13.62614029 0 0 0-1.5155779 2.0713568c-.4398741.7034444-.7430039 1.4836029-.8934673 2.2994975-.1590759.7869097-.1536009 1.5982234.0160804 2.3829146.0940226.4087106.253899.7994066.4733668 1.1567839M20.5527638 77.034171a13.00904711 13.00904711 0 0 0 1.4301508-1.9567839 15.9125747 15.9125747 0 0 0 1.0492462-2.158794 26.33165553 26.33165553 0 0 0 1.3427136-3.9668342c.3105527-1.079397.4613065-1.7939698.4613065-1.7939698s-.7728643.320603-1.8854271.9185929c-.5487437.3015076-1.2140704.6693468-1.8613066 1.0974875a21.4261188 21.4261188 0 0 0-1.9889447 1.481407c-1.3453098 1.0425115-2.4232395 2.390182-3.1447236 3.9316583-.312053.723877-.4750946 1.5031956-.479397 2.2914573.0445138.8252555.3047695 1.6243894.7547739 2.3175879 1.6721249-.1079068 3.2301135-.8854518 4.321608-2.1567839M18.1015075 67.0834172a9.71658287 9.71658287 0 0 0 .8613066-.8301507c.2834171-.2934674.560804-.6100503.8160804-.9306533a16.3336702 16.3336702 0 0 0 1.3648241-2.0241206c.201005-.3447236.3798995-.681407.5567839-1.0261307.1768844-.3447236.3547739-.6934673.5125628-1.0301507.3145729-.6653267.5748744-1.2914573.7819096-1.8261307.40201-1.0753769.6321608-1.7768844.6321608-1.7768844s-.7879397.2653266-1.919598.7859297a27.43717541 27.43717541 0 0 0-4.0371859 2.2733668 17.11656797 17.11656797 0 0 0-2.0321608 1.6361809c-.5958489.5702675-1.1193694 1.2115886-1.558794 1.9095477-.4191493.654018-.7009065 1.3864499-.8281407 2.1527639-.0901535.7852311.0201472 1.5805024.320603 2.3115577 1.6613475.0647999 3.282912-.5182426 4.5226131-1.6261306M12.7829146 57.5427137c1.6215851.1766633 3.2488865-.2783044 4.5437186-1.2703518.6522838-.4740585 1.2520077-1.0165055 1.7889447-1.6180904a16.6713588 16.6713588 0 0 0 1.5346734-1.8693468c.4633165-.6361809.8381909-1.2934673 1.2241206-1.8753768.3859296-.5819096.6974874-1.1386935.9527638-1.6080402.2552764-.4693468.4512563-.8673367.5859296-1.1447237l.2140704-.4261306-.5366834.1366834c-.3487438.0874372-.8201005.2341709-1.3899498.4261307a26.10150562 26.10150562 0 0 0-4.1316583 1.8180904c-.3708543.201005-.7386934.4281407-1.0994975.6613065-.360804.2331659-.6874372.4894473-1.0120603.756784-.6360792.5101687-1.2095779 1.093788-1.7085427 1.7386934-.9942809 1.1863289-1.3537039 2.7801453-.9648241 4.278392M18.5748744 44.4703519c1.3326516-.8057 2.5497895-1.7885389 3.6180904-2.9216081.2592965-.2673366.4974875-.5427135.7366834-.8100502.239196-.2673367.4914573-.5125628.7145729-.7628141.4452261-.4974874.8241206-.9648241 1.1366834-1.3688442.3125628-.4040201.5688442-.7266332.758794-.9547739l.2834171-.3587939s-.7748744.0653266-1.9507538.2773869a22.50351908 22.50351908 0 0 0-4.2211055 1.2160804 15.5125608 15.5125608 0 0 0-2.2582915 1.0954774c-.6762271.4201468-1.3012096.9176369-1.8623115 1.482412a7.12362464 7.12362464 0 0 0-.7266332.8713568c-.2160674.2919168-.3874612.614381-.5085427.9567839-.2552162.6829732-.3323456 1.41968-.2241206 2.1407036 1.556201.2686438 3.156984-.0382235 4.5035176-.8633166M29.238191 28.4130655c-.5748744.0120603-1.2592965.0492462-2.0020101.120603a19.7919491 19.7919491 0 0 0-2.3035176.3738693 17.25126435 17.25126435 0 0 0-2.3788945.6934674c-.3899497.1487437-.7708542.3065326-1.1407035.4874371a7.80201696 7.80201696 0 0 0-1.0050251.6030151c-1.2715501.7442884-2.117762 2.0445197-2.2834171 3.5085427 1.4481035.4638702 3.0130749.4048281 4.4221106-.1668341 1.4606142-.5192871 2.8394108-1.2448983 4.0944723-2.1547739a31.41707981 31.41707981 0 0 0 3.1688443-2.3527638c.8381909-.6432161 1.3286432-1.0974875 1.3286432-1.0974875s-.7427136-.0472362-1.9015076-.0140703M36.6301508 19.8582916a24.42210426 24.42210426 0 0 0-4.236181-.0221106c-1.6272832.1101539-3.2259285.4835105-4.7336683 1.1055277-1.3601174.5580184-2.446785 1.6277236-3.0261306 2.9788944.6214767.3513095 1.310966.5654898 2.0221105.6281407.7458169.0687653 1.4975405.0349495 2.2341709-.1005025a13.69347095 13.69347095 0 0 0 2.2522613-.6100502c.7386934-.2653267 1.442211-.5819096 2.1748743-.8974875a35.11253595 35.11253595 0 0 0 3.6030151-1.921608c.958794-.5427136 1.5427136-.9407035 1.5427136-.9407035s-.7105528-.120603-1.8321608-.2180905M35.5366834 11.9597991c-1.3319244.5300628-2.4062868 1.5561474-2.9969849 2.8623116 2.3547739 1.4201005 5.7286432.362814 8.4241206-.9768844a33.1577912 33.1577912 0 0 0 3.5547739-1.9809046c.9045226-.5758794 1.4552763-.9939698 1.4552763-.9939698-1.9495928-.2235375-3.9174142-.2393717-5.8703517-.0472362-1.5750515.1233381-3.1186745.5074608-4.5678392 1.1366834M109.077387 118.58794c1.041641-.339952 2.015542-.860069 2.877387-1.536684.384525-.307128.74226-.646372 1.069347-1.01407a6.47445345 6.47445345 0 0 0 .443216-.554774c.128643-.201005.245226-.40201.358794-.603015.424662-.803727.732294-1.664013.913567-2.554774.185193-.85241.247131-1.726982.18392-2.596985-.115493-1.496807-.442356-2.969719-.970854-4.374874-.20804-.560804-.40804-1.005025-.550754-1.319598-.142714-.314573-.255276-.489447-.255276-.489447s-.030151.041206-.085427.122613c-.055277.081407-.144724.187939-.255277.334673-.21608.289447-.526633.709548-.873367 1.232161-.346733.522613-.746733 1.142714-1.144723 1.844221-.447236.669347-.913568 1.407035-1.334674 2.188945-.21206.39397-.41608.79799-.603015 1.20603-.091457.201005-.183919.41206-.269346.6201-.085428.208041-.19196.40201-.279397.610051-.348072.782192-.594955 1.605587-.734674 2.450251-.342955 1.642332.23463 3.341203 1.507538 4.434171M121.674372 96.9467338c-.370371-.5558203-.773075-1.0894028-1.20603-1.59799a18.47731947 18.47731947 0 0 0-.718593 1.7748744c-.100503.2733669-.201005.5728643-.301508.8954774-.100502.3226131-.255276.640201-.375879.9879394-.271661.742981-.503812 1.499819-.695478 2.267337l-.140703.60804c-.057622.201005-.113233.40201-.166834.603015-.100503.40201-.18593.80402-.249246 1.224121-.136146.807989-.168233 1.630089-.095478 2.446231.038007 1.64704.925903 3.157033 2.346734 3.990955.489684-.22577.958214-.494846 1.4-.80402.390145-.288354.741159-.626192 1.044221-1.005025.575175-.688122 1.014139-1.479418 1.293467-2.331659.065327-.201005.126633-.41005.17588-.61608.039833-.212673.067683-.427417.083417-.643216a8.8250945 8.8250945 0 0 0 .0201-1.293468c-.049781-.842637-.19407-1.677016-.430151-2.487437a11.8471745 11.8471745 0 0 0-.924623-2.2341706 18.41099359 18.41099359 0 0 0-1.061306-1.7849246M130.147739 91.6241207c-.208041-.360804-.430151-.7035176-.657287-1.0361809-.227135-.3326633-.491457-.6532663-.738693-.9527638-.456587-.5416967-.940288-1.059947-1.449246-1.5527638a18.68031554 18.68031554 0 0 0-1.536684-1.3567839c-.113684.6014398-.196872 1.2082453-.249246 1.8180904-.028141.5688442-.142714 1.1959799-.201005 1.9015076-.071512.7542218-.100704 1.5118584-.087437 2.2693467-.04075.7952456-.022273 1.5924209.055276 2.3849246.046405.4005199.113497.7983713.201005 1.1919598.091457.3939699.201005.7778895.314573 1.1366834.468717 1.5878292 1.6576 2.8623492 3.209045 3.4402012a7.4462662 7.4462662 0 0 0 1.118593-.972864c.316855-.321652.579852-.692224.778895-1.0974879.37278-.7522512.585955-1.5734703.62613-2.4120603.026955-.4089052.015177-.8194433-.035176-1.2261307-.073607-.417964-.176029-.8303379-.306532-1.2341708-.263421-.8031143-.611438-1.5759627-1.038191-2.3055277M132.027136 87.9276383c.837681 1.4463485 2.256566 2.4629234 3.895477 2.7909548.31269-.3335138.587092-.7009574.818091-1.0954774.222109-.356719.384068-.7475242.479397-1.1567839.16707-.7850419.171858-1.5959545.01407-2.3829146-.077501-.3955287-.186045-.7843365-.324623-1.1628141-.160717-.3930352-.35157-.7730612-.570855-1.1366834-.436728-.7359014-.943972-1.4275976-1.514572-2.0653266-.537298-.6197345-1.122703-1.1960657-1.750754-1.7236181-.61005-.5145729-1.20603-.9547739-1.717588-1.3135678-1.028141-.7226131-1.754774-1.1246232-1.754774-1.1246232s.01005.7206031.146734 1.8261307c.047236.279397.067336.5748744.091457.8874372.024121.3125628.067337.6452261.114573.9939698.095477.6934674.239196 1.4502513.42412 2.2201005.141332.7776828.345348 1.5426571.610051 2.2874372a10.4453124 10.4453124 0 0 0 .471356 1.1155779c.091458.1819096.18392.360804.281408.5366834.097487.1758794.183919.3407035.287437.5025126M140.300503 76.8713569c-.001677-.7870348-.164127-1.5654298-.477387-2.2874372-.722549-1.5399677-1.79992-2.8866812-3.143719-3.9296482a20.6109441 20.6109441 0 0 0-1.990955-1.477387c-.647236-.4341708-1.306532-.8040201-1.861306-1.1055276-1.115578-.5959799-1.885427-.9165829-1.885427-.9165829s.148743.7165829.461306 1.7929648c.340536 1.3563773.790244 2.6829823 1.344724 3.9668342a15.35776035 15.35776035 0 0 0 1.048241 2.160804 13.08132593 13.08132593 0 0 0 1.428141 1.958794c1.093198 1.2688486 2.650361 2.0452576 4.321608 2.1547738.447095-.6950473.705808-1.494392.750753-2.3195979M142.520603 66.3969851c-.127668-.766196-.409392-1.4985431-.828141-2.1527639-.438716-.698468-.962304-1.3398723-1.558794-1.9095477-.633856-.5973538-1.3133-1.1444035-2.03216-1.6361809-1.276832-.8724329-2.625779-1.6343255-4.032161-2.2773869-1.130654-.5206031-1.919598-.7859297-1.919598-.7859297s.232161.7035176.634171 1.7788945c.201005.5346733.465326 1.1587939.781909 1.8261306.154774.3346734.326633.679397.508543 1.0281407.181909.3487438.356784.6814071.554774 1.0281407a16.31354192 16.31354192 0 0 0 1.372864 2.0221106c.251256.3226131.528643.6381909.81206.9346734.271038.2929793.559323.569518.863317.8281407 1.239516 1.1079911 2.861394 1.6904252 4.522613 1.6241206.299524-.7313069.409791-1.5263383.320603-2.3115578M142.031156 53.2643217c-.500377-.6436712-1.073723-1.227134-1.708543-1.7386934-.326633-.2633166-.661306-.5165829-1.01608-.7547739-.354774-.238191-.728644-.4552764-1.097488-.6592965-1.322489-.7268632-2.706388-1.3359135-4.135678-1.8201005-.566834-.1939698-1.040201-.3407035-1.386935-.4281407l-.538693-.1366834s.077387.1567839.21809.4281407c.140704.2713568.326633.6713568.5799 1.1427136.253266.4713567.575879 1.0241206.952763 1.6080402.376885.5839196.758794 1.240201 1.226131 1.8753768.467514.6591991.981021 1.2845418 1.536684 1.8713568a11.22611291 11.22611291 0 0 0 1.788944 1.6180905c1.295322.9924267 2.923788 1.4464385 4.545729 1.2673367.386237-1.4989173.02546-3.0920991-.968844-4.278392M140.975879 42.2381911c-.218057-.3097708-.461078-.601194-.726633-.8713568-.561967-.5671978-1.188331-1.0667374-1.866331-1.4884422-.722575-.4243703-1.477713-.7906812-2.258292-1.0954774-1.364259-.5408412-2.777975-.9474527-4.221105-1.2140704-1.176885-.2120603-1.950754-.2773869-1.950754-.2773869s.100502.1286432.283417.358794c.182914.2301507.461306.5527638.758794.958794.297487.4060301.695477.8673366 1.138693 1.3668341.220101.2472362.461307.5025126.712563.760804.251256.2582915.475377.5427136.738694.8100503 1.068994 1.1328898 2.28601 2.1163069 3.61809 2.9236181 1.349665.8227323 2.951671 1.1287093 4.509548.8613065.10754-.7211948.029719-1.457895-.226131-2.1407035-.122607-.3421227-.294613-.6644648-.510553-.9567839M135.363819 30.6964825c-.320208-.2261908-.65606-.4293809-1.005025-.6080402-.368844-.1798995-.754774-.3386934-1.140704-.4874371-.776127-.2869752-1.571794-.5180509-2.380904-.6914573a18.6049978 18.6049978 0 0 0-2.301508-.3708543c-.744723-.0753769-1.42613-.1105528-2.00201-.1246231-1.156784-.0341709-1.903517.0140703-1.903517.0140703s.493467.4532664 1.332663 1.0994975c1.006634.8491365 2.065311 1.6345846 3.169849 2.3517588 1.255194.9107592 2.634354 1.6370604 4.095478 2.1567839 1.408615.5736174 2.974279.6326856 4.42211.1668342-.165697-1.4643058-1.013354-2.7642936-2.286432-3.5065327M128.118593 20.9417087c-1.506431-.6217306-3.103707-.9950845-4.729648-1.1055277a24.24221624 24.24221624 0 0 0-4.240201.0241206c-1.118593.0934674-1.832161.2180905-1.832161.2180905s.58593.3939698 1.544724.9366834c1.161677.7098849 2.364087 1.3508568 3.601005 1.919598.732663.3165829 1.440201.6361809 2.172864.8994975a13.24824572 13.24824572 0 0 0 2.256281.6080402c.735839.1364516 1.487037.1702741 2.232161.1005025.711968-.0616899 1.402312-.2759229 2.024121-.6281407-.579547-1.351737-1.667084-2.4215875-3.028141-2.9788945M114.815075 13.8462313c2.695478 1.3386934 6.066332 2.3969849 8.422111.9788945-.589576-1.3074191-1.66423-2.3345026-2.996985-2.8643217-1.447628-.6297752-2.989968-1.0142562-4.563819-1.1376884-1.954953-.192109-3.92477-.176275-5.876382.0472362 0 0 .550754.4180904 1.457286.9959799 1.144494.7309375 2.33227 1.3917824 3.556784 1.9788945"/>
        <path d="M144.321608 80.5929649c1.678663.2624563 3.393452-.1410871 4.778895-1.1246231.783195-.5190999 1.490461-1.1445108 2.101507-1.8582914.643498-.7247456 1.230795-1.497505 1.756784-2.3115578.87448-1.4553323 1.610052-2.9897361 2.196985-4.5829146a21.95748568 21.95748568 0 0 0 .623115-2.1407035s-.797989.3567839-1.958793.9839196c-.58191.3085427-1.236181.6894472-1.972865 1.1246231-.736683.4351759-1.507538.9246231-2.269347 1.4633166-1.521051 1.0408425-2.886172 2.2929363-4.054271 3.718593-.051256.0673366-.093467.1306532-.144724.201005.536014-2.4857622.971525-4.9899498 1.306533-7.5125628 1.393235-.0793047 2.717594-.6320962 3.753769-1.5668342.327469-.2857531.637569-.5908194.928643-.9135678.28364-.3347208.548374-.6850145.792965-1.0492463.496606-.7438273.933484-1.5258397 1.306533-2.3386934.183919-.4020101.358794-.8100503.514573-1.2060302.155778-.3959799.279397-.7748744.40201-1.1467337.239196-.7487437.42814-1.4482412.572864-2.0502512a15.61616397 15.61616397 0 0 0 .38593-2.0241206s-.716583.3879397-1.774875 1.0492462c-1.322676.8120618-2.581894 1.7232146-3.766834 2.7256282-.661306.5624152-1.282267 1.1706139-1.858291 1.8201005-.243217.2693467-.471357.5467336-.685428.8281407.122613-2.1256282.156784-4.2542714.083418-6.3778895 1.005543-.288223 1.91616-.8391028 2.63819-1.5959799.571538-.5903676 1.065317-1.2513287 1.469347-1.9668342.763028-1.4782164 1.31642-3.0555177 1.644221-4.6864321.134674-.7628141.228141-1.4814071.293468-2.0974875.065326-.6160804.100502-1.1346733.116583-1.4934673.01608-.358794-.006031-.5748744-.006031-.5748744s-.150753.1125629-.43015.316583-.671357.5025125-1.140704.8693467c-1.16455.9136173-2.262477 1.9091062-3.285427 2.9788945-.279397.3015075-.554774.6080402-.81809.9266331-.263317.318593-.540704.640201-.78593.9748744-.069347.0894472-.126633.1798995-.201005.2733668-.269277-2.0414661-.653472-4.0661213-1.150754-6.0643216.935266-.3609976 1.742969-.9903765 2.321608-1.8090452.9139-1.3370268 1.473419-2.8841759 1.626131-4.4964824.057286-.4100503.112563-.8201005.136683-1.2281407.00804-.4020101.00603-.8040201-.00603-1.1899498-.024121-.7748743-.079397-1.4994975-.144724-2.119598a9.9938969 9.9938969 0 0 0-.249246-1.4934673c-.087437-.358794-.136683-.5648241-.136683-.5648241s-.508543.520603-1.20603 1.3668342a32.91049035 32.91049035 0 0 0-2.507538 3.3165829c-.422105.652274-.800489 1.3318219-1.132663 2.0341708-.134674.2592965-.247237.520603-.358794.7839196-.785384-2.1993288-1.701937-4.349586-2.744724-6.439196.995994-.4494583 1.781623-1.2638648 2.194975-2.2753768.494158-1.4643083.633997-3.0249348.40804-4.5537689-.239923-1.4712534-.630244-2.9139913-1.164824-4.3055276-.481407-1.1226131-.873367-1.8633166-.873367-1.8633166s-.360804.5648241-.82412 1.4673367c-.232161.4512563-.487438.9819095-.742714 1.5728643s-.542714 1.2522613-.776884 1.9326633c-.24759.6876229-.442129 1.3932056-.58191 2.1105528a9.97386942 9.97386942 0 0 0-.146734 1.0693467c-.00603.1286432-.01809.2592965-.02814.3859297-1.455227-2.2752747-3.070352-4.444225-4.833166-6.4904523.463755-.233109.870659-.5652193 1.19196-.9728643.370588-.5058076.606456-1.0975522.685427-1.719598.092916-.6950519.080379-1.4001478-.037186-2.0914573-.107827-.7581131-.306579-1.5004783-.59196-2.2110553-.522491-1.3301585-1.167828-2.6087205-1.927638-3.8190955-.647236-.9768844-1.138694-1.60201-1.138694-1.60201s-.243216.5688442-.518593 1.4633166c-.345598 1.1331236-.602653 2.2913816-.768844 3.4643216-.215811 1.3636749-.152558 2.7569669.18593 4.0954774.02412.0934673.049246.1839196.077387.2773869-2.067337-2.158794-4.337689-4.2974874-6.817086-6.5396985 2.458292-1.3849246 1.790955-4.2884422.418091-6.920603-.666165-1.18271694-1.432095-2.30639594-2.289447-3.35879397-.700503-.88442211-1.219096-1.44120603-1.219096-1.44120603-.440263 1.55483578-.664145 3.16292901-.665327 4.77889447-.000239 1.31961527.253983 2.62689697.748744 3.85025126a5.90639076 5.90639076 0 0 0 .37789.72864317h-.008041c-1.929464-1.55162572-4.003278-2.91464822-6.192964-4.07035171 15.658291 13.11457291 27.613065 28.97386931 29.4 47.15577891.643216 6.6030151-.150754 13.1949749-1.178895 19.7447236-1.156784 7.3959799-3.0201 14.7658291-6.853266 21.6190955-5.793413 10.5703627-14.265955 19.4304147-24.566834 25.6904527 0 0-16.1286436 8.090452-33.4130657 8.269346v-.00804c-.4160804.00603-.8301508 0-1.2462312 0h-.5959799c-17.0773869-.249246-33.4170854-8.265327-33.4170854-8.265327-10.2974684-6.262761-18.768576-15.121345-24.5648241-25.6884418-3.8281407-6.8512563-5.6944724-14.2271357-6.8512563-21.6170854-1.0251256-6.5497487-1.8251256-13.1417085-1.1819095-19.7447236 1.7909547-18.1819096 13.7417085-34.0432161 29.403015-47.15879399-2.1906238 1.15625172-4.2657207 2.51923297-6.1969849 4.07035179h-.0060301a5.40000757 5.40000757 0 0 0 .3798995-.7266332c.4947728-1.22405296.7489904-2.531994.7487437-3.8522613-.0041128-1.61497714-.228975-3.22181215-.6683417-4.7758794 0 0-.518593.55678392-1.2180905 1.4321608a23.932669 23.932669 0 0 0-2.2914573 3.35678392c-1.3748743 2.63417086-2.0361809 5.53768848.4201005 6.92261308-2.481407 2.240201-4.7497487 4.3809045-6.8211055 6.5376884.0301508-.0914573.0552764-.1819095.079397-.2773869.3386558-1.338144.4019117-2.7311423.1859296-4.0944724a22.84522944 22.84522944 0 0 0-.7668341-3.4643216c-.2753769-.8954774-.520603-1.46532661-.520603-1.46532661s-.4894473.62814071-1.1386935 1.60804021a22.84724062 22.84724062 0 0 0-1.9276382 3.8190955c-.2844728.7108795-.4831946 1.453134-.5919598 2.2110552-.1162482.6913942-.1294568 1.396193-.039196 2.0914573.0791472.6220691.3165264 1.2134409.6894473 1.717588.3207084.4095406.7285624.7425527 1.1939698.9748743a56.55679456 56.55679456 0 0 0-4.8371859 6.4904523c-.0080402-.1286432-.0201005-.2572864-.0281407-.3859296a9.49648809 9.49648809 0 0 0-.1467337-1.0693468 14.63718884 14.63718884 0 0 0-.5778894-2.1105527c-.237186-.679397-.5326634-1.3467337-.7798995-1.9306533-.2472362-.5839196-.5105528-1.120603-.7427136-1.5728643-.4613065-.9045226-.8201005-1.4673367-.8201005-1.4673367s-.3939699.7366834-.8733668 1.8633166c-.5365401 1.3911947-.9282254 2.8339976-1.1688443 4.3055276-.2246092 1.5302028-.0848043 3.0918169.4080402 4.557789.4135107 1.0135818 1.2013135 1.8290963 2.2 2.2773869a57.4924628 57.4924628 0 0 0-2.7427135 6.4371859c-.1065327-.2673367-.2281407-.5246231-.358794-.7859296a17.84925333 17.84925333 0 0 0-1.1326633-2.0321608 33.57687398 33.57687398 0 0 0-2.50753771-3.3236181c-.70351758-.8442211-1.20603015-1.3648241-1.20603015-1.3648241s-.04723618.201005-.13467336.5648241a10.25728632 10.25728632 0 0 0-.24924623 1.4934673c-.06532664.6180905-.12060302 1.3427136-.14472362 2.119598-.01005025.3879397-.0120603.7859297 0 1.1899498.0241206.4080402.07537688.8180904.13266331 1.2281407.15771094 1.611498.71754192 3.1575991 1.62814071 4.4964824.57955452.8177944 1.3869661 1.4469463 2.32160805 1.8090452a55.61808653 55.61808653 0 0 0-1.16281408 6.0673367c-.06130653-.0934674-.12663317-.1839196-.19396985-.2733669-.24522613-.3346733-.51457287-.6592964-.78592965-.9748743-.27135678-.3155779-.53668342-.6281407-.81809045-.9286432a31.51557773 31.51557773 0 0 0-3.28341709-2.9768845c-.46934673-.3708542-.87336683-.6653266-1.14070351-.8733668-.26733669-.2080402-.43417086-.3145729-.43417086-.3145729s-.01407035.2140704 0 .5758794c.01407035.3618091.05326633.8733669.11658292 1.4914573.06331658.6180905.15678392 1.3366834.29547738 2.0994975a15.81105654 15.81105654 0 0 0 .64221106 2.3628141 15.51457584 15.51457584 0 0 0 1.00502512 2.3236181c.40266344.7158753.89583066 1.3769221 1.46733669 1.9668341.72069057.7555525 1.62899764 1.3062938 2.6321608 1.5959799-.07336683 2.1236181-.03718593 4.2522613.08542714 6.3778895-.21608041-.281407-.44522613-.558794-.68542714-.8301508a18.94271878 18.94271878 0 0 0-1.85829146-1.8180904 30.8643316 30.8643316 0 0 0-3.76683417-2.7256282C1.16281407 56.6391961.44924623 56.2512564.44924623 56.2512564a15.66532553 15.66532553 0 0 0 .3798995 2.0281407c.14874372.6030151.33668342 1.3015075.5758794 2.0482412.11859296.3738694.24924623.758794.40201005 1.1487437.15276381.3899498.32864321.8040201.51457286 1.2060302a17.14874275 17.14874275 0 0 0 1.29648241 2.3417085 11.8793875 11.8793875 0 0 0 .78592965 1.0442211 10.37185537 10.37185537 0 0 0 .93266332.9135679c1.03539248.9352956 2.35885356 1.4894262 3.75175879 1.5708542.33467337 2.519598.77487437 5.0251257 1.30653269 7.5125629-.0452262-.0693468-.0894473-.1346734-.1386935-.2010051C9.08785654 74.4382474 7.72200997 73.1861086 6.2 72.1457288c-.76080402-.5366834-1.53668342-1.0261307-2.26934673-1.4613066-.73266332-.4351758-1.38693468-.8180904-1.97286433-1.1246231C.79396984 68.9286433 0 68.5748745 0 68.5748745s.1919598.8673367.62613065 2.1427136c.58978222 1.5924905 1.32628227 3.1267255 2.2 4.5829145a19.48241153 19.48241153 0 0 0 1.75678392 2.3115578c.61080871.7132654 1.31733548 1.3386211 2.09949749 1.8582915 1.38603667.9838449 3.10183076 1.3867337 4.78090454 1.122613.079397.316583.1628141.6301508.2452261.9407036a57.84321841 57.84321841 0 0 0 2.160804 6.5839196c-.1587939-.1648242-.3246231-.3266332-.4954774-.4854272a13.68942443 13.68942443 0 0 0-1.1246231-.922613c-.3959799-.3015076-.7748743-.5879397-1.1899497-.8633166a26.30250646 26.30250646 0 0 0-2.59798997-1.5256282c-.88140703-.4673366-1.80904522-.881407-2.60502512-1.2552763-.7959799-.3738694-1.57487437-.6894473-2.22613066-.9527639-1.31356784-.522613-2.19698492-.8100502-2.19698492-.8100502s.3758794.8914573 1.05326633 2.1788945a23.5778878 23.5778878 0 0 0 1.36482412 2.1587939 28.26533504 28.26533504 0 0 0 1.81708543 2.3648242 22.64221668 22.64221668 0 0 0 2.31758794 2.1768844c.40201005.3266331.8201005.6321608 1.24221105.9045226.21206031.1366834.42412061.2673367.63618091.3899497.23015079.1206031.45527639.2341709.67939699.3346734 1.5997092.8235203 3.4571987.9918587 5.1788945.4693467a53.39598741 53.39598741 0 0 0 4.2110552 7.0723619c-.2552763-.18995-.520603-.3758795-.8040201-.5467337-.4381909-.2713568-.9045226-.5246231-1.3788944-.7668342-.4512563-.2492462-.9266332-.481407-1.4140704-.7035176-.9688442-.441206-1.9959799-.8281407-3.0150754-1.1748744-.5105527-.1688442-1.0201005-.3286432-1.521608-.483417-.5015075-.1547739-.9668342-.2954774-1.4180905-.4321608-.91155774-.2693468-1.76482407-.4954774-2.49346729-.6753769-1.46331658-.3628141-2.43417085-.5427136-2.43417085-.5427136s.60301507.8733668 1.6080402 2.119598a20.36080121 20.36080121 0 0 0 1.90954774 2.0361809c.74271356.7226131 1.5688442 1.4673363 2.440201 2.1728643.9273945.689378 1.9012293 1.313975 2.9145729 1.869347.4974874.273367 1.0050251.518593 1.4994975.734673.4898708.220724.9975456.399587 1.5175879.534673 1.7974692.599763 3.7602326.454989 5.4502512-.40201 1.5728644 1.960804 3.2341709 3.939699 4.9929649 5.872362-.0713568-.032161-.1447236-.061306-.2160804-.091457-.2592965-.100503-.520603-.19397-.7879397-.287437-.2673367-.093468-.5125628-.18995-.7778895-.277387-.5246231-.17789-1.0673367-.334674-1.6180904-.483417-1.0994975-.285427-2.2422111-.512563-3.3668342-.697488-1.1487437-.171859-2.1889447-.350753-3.1929648-.475377-1.0040201-.124623-1.9236181-.22412-2.7135679-.301507-1.5788944-.142714-2.6130653-.17588-2.6130653-.17588s.8422111.79799 2.198995 1.901508c.3386935.275377.7095477.572864 1.1055276.877387.3959799.304523.8713568.59598 1.3407035.904523.9487438.60804 1.9849247 1.22613 3.0582915 1.79799.2713568.140703.5346734.283417.8160804.41407.281407.130653.5728643.247236.8613065.366834.5758794.236181 1.158794.453266 1.7326634.642211 1.0936944.378417 2.222135.647735 3.3688442.80402 1.6375073.25323 3.3128868-.036944 4.7698492-.82613 1.4422111 1.391959 2.9437186 2.731658 4.5075377 3.996984-.4733668-.069346-.9547739-.132663-1.442211-.179899-1.1839196-.118593-2.4301508-.136683-3.5648242-.18593-2.3035176-.071356-4.5135678.028141-6.1497487.140704-.8201005.055276-1.4914573.118593-1.9567839.164824l-.720603.071357.1798995.122613c.1185929.081407.3065326.185929.5407035.322613.4673367.277387 1.1447236.663316 1.9728643 1.105528.8281407.442211 1.7979899.940703 2.8643216 1.43618 1.1055276.457287 2.3015075.904523 3.5276382 1.306533.6120603.201005 1.2361809.38191 1.8502512.546734.3125629.085427.6221106.160804.9306533.236181.3085427.075377.6341709.118593.9427136.169849 1.1915804.200211 2.3988913.291709 3.6070352.273367 1.3747013.01402 2.7299387-.325481 3.9356783-.98593.5842547.342379 1.1778895.671692 1.7809046.98794.0946187.060684.2065622.088581.3185929.079397 8.2430679 4.32618 17.2074556 7.109265 26.4512563 8.21206-6.6271357 1.232161-14.4150754 2.590955-22.6864321 3.850251l-8.9246232 7.59397s20.0834171-6.692462 38.8201005-10.954774c18.7346734 4.262312 38.8180906 10.954774 38.8180906 10.954774l-8.924623-7.59397c-8.4854274-1.291457-16.4572867-2.687437-23.1949751-3.943718 9.0458526-.92784 17.8075481-3.690299 25.7497491-8.118593.086012-.009527.169324-.035818.245226-.077387.603015-.316918 1.19665-.646901 1.780904-.98995 1.20385.661561 2.558092 1.00116 3.931659.98593 1.206843.019455 2.412921-.072052 3.603015-.273367.312562-.051256.63216-.106533.946733-.169849.314573-.063317.618091-.150754.928644-.234171.61809-.166834 1.240201-.352764 1.852261-.548744 1.22412-.39598 2.426131-.845226 3.527638-1.301507 1.063317-.497488 2.040201-.99397 2.866332-1.438191.82613-.444222 1.507537-.822111 1.974874-1.099498.232161-.138693.420101-.243216.538694-.322613s.177889-.124623.177889-.124623-.253266-.024121-.716583-.071357-1.144724-.106533-1.960804-.164824c-1.636181-.112563-3.842211-.21206-6.147739-.140703-1.134673.049246-2.378894.067336-3.566834.187939-.483417.045226-.964824.108543-1.440201.17789 1.562814-1.265327 3.066332-2.605025 4.507538-3.996985 1.456642.790109 3.132333 1.080336 4.769849.82613 1.145969-.156737 2.273698-.426046 3.366834-.80402.57588-.189949 1.158794-.40804 1.732664-.643216.293467-.116583.577889-.237186.863316-.364824.285427-.127638.544724-.275377.816081-.41608 1.073366-.572865 2.110552-1.18995 3.056281-1.79598.471357-.308543.934673-.603015 1.338693-.904523.404021-.301507.770855-.603015 1.105528-.877387 1.354774-1.105527 2.194975-1.903517 2.194975-1.903517s-1.032161.034171-2.613065.175879c-.79598.073367-1.721608.168844-2.713568.301508-1.005025.126633-2.046231.301507-3.194975.475376-1.122613.18392-2.268342.412061-3.368844.697488-.550754.148744-1.091458.306533-1.616081.483417-.265326.087437-.516583.18593-.779899.279397-.263317.093467-.528643.18392-.78392.287437-.075377.028141-.144723.057287-.2201.089447 1.760804-1.932663 3.42211-3.909547 4.992965-5.872361 1.69008.856778 3.652753 1.001545 5.450251.40201.520932-.13559 1.029846-.313744 1.521608-.532664.497487-.21809 1.005025-.463316 1.495477-.736683 1.013927-.554388 1.987829-1.179029 2.914573-1.869347.873367-.703517 1.701508-1.448241 2.446231-2.1708541a20.51454827 20.51454827 0 0 0 1.909548-2.038191c1.005025-1.2442211 1.60804-2.1195979 1.60804-2.1195979s-.970854.1798995-2.432161.5427135c-.728643.1798995-1.582914.4020101-2.493467.6753769-.453266.1366834-.926633.2834171-1.422111.4321608-.495477.1487437-1.005025.3145729-1.517587.4854271-1.022111.3447237-2.046232.7326634-3.015076 1.1728644-.489447.2241206-.960804.4552764-1.41407.7035176-.473367.241206-.938694.4954773-1.376885.7668341-.281407.1738694-.544723.3567836-.80402.5467336 1.585856-2.244105 2.993832-4.6087642 4.211056-7.0723617 1.721129.522858 3.578194.3552463 5.177889-.4673367.228141-.1005025.453266-.2140703.681407-.3366834.228141-.1226131.424121-.2532663.636181-.3899498a14.40611775 14.40611775 0 0 0 1.244221-.9045226c.823512-.668641 1.598026-1.3954623 2.317588-2.1748743.646207-.7560481 1.252396-1.5454027 1.81608-2.3648242.494716-.6939519.949717-1.415376 1.362814-2.160804.679397-1.2874372 1.053267-2.1788945 1.053267-2.1788945s-.883417.2874372-2.192965.8100503c-.657286.2653266-1.41809.5819095-2.226131.9527638-.80804.3708543-1.725628.7919598-2.60603 1.2552764a26.43214377 26.43214377 0 0 0-2.60402 1.5165829c-.41809.2753769-.79799.5648241-1.19196.8633166a14.23433083 14.23433083 0 0 0-1.126633.9246231c-.171859.160804-.336683.318593-.493467.4834171.850738-2.1500557 1.573608-4.3485317 2.164824-6.5839196.079397-.3105528.160804-.6241206.241206-.9386935"/>
      </g>
    </g>
    <g transform="translate(60.18995 78.709548)">
      <mask id="d" fill="#fff">
        <use xlink:href="#c"/>
      </mask>
      <g mask="url(#d)">
        <path d="M80.5778894 20.5668343c-.4595141.3998936-.9657011.7427509-1.5075376 1.0211055-1.7638191.6623116-3.556784 1.2512563-5.3547739 1.8160804-.2269658.039199-.4288985.1673662-.5609818.3560565-.1320832.1886904-.1833908.4222951-.1425358.6489687.0211055 5.5869346.0130653 11.1738693.0120603 16.760804 0 1.2854271-.1336683 1.4854271-1.3487437 1.9879397-10.158794 4.1983249-20.318928 8.400335-30.480402 12.6060301-.5737629.2622076-1.2324045.2658667-1.8090453.0100503-10.1842546-4.2211056-20.3685092-8.4365159-30.55276377-12.6462312-1.15678392-.4783919-1.29949749-.6944723-1.29949749-1.9386935 0-5.5869346-.0120603-11.1738693.01507538-16.760804.03837085-.2384832-.0202397-.4824068-.16277263-.6774221-.14253293-.1950152-.35714603-.3249195-.59602134-.3607688-1.84623116-.5879397-3.67537689-1.2281407-5.50653266-1.8592965-1.39296483-.479397-1.65025126-1.321608-.76180905-2.5125628 2.31959799-3.1105528 4.62914573-6.2311558 6.9919598-9.3065327.36891864-.4611056.86733394-.80131602 1.43115578-.97688441C19.1169179 5.82881085 29.2964824 2.95075389 39.4834171.10050264c.5248748-.13963745 1.0771352-.13963745 1.60201 0C51.2462312 2.94740381 61.399665 5.81876059 71.5457286 8.71457299c.6126654.19305257 1.1534829.56514901 1.5527639 1.06834171 2.319598 3.0150754 4.5758794 6.0713568 6.8522613 9.1165829.2150753.2884422.4190954.5859297.6271356.879397v.7879397Zm-41.6261306 1.9547739c-.2331658.2603015-.3959799.4281407-.5437186.6090452-2 2.4616415-3.998995 4.9242881-5.9969849 7.3879397-.8994975 1.1055276-1.1718593 1.1919598-2.4874372.7457286a76762.28738651 76762.28738651 0 0 1-18.7336684-6.361809c-.3125628-.1065327-.6311557-.201005-1.041206-.3236181-.0170854.3758794-.039196.6542714-.039196.9316583 0 4.8241206.0100503 9.6482412-.0160804 14.4723618-.0800542.5430891.2576003 1.0605671.7869347 1.2060301 9.1048576 3.7346734 18.2026801 7.4867672 27.2934673 11.2562815.2331659.1005025.4743719.1708542.7768845.2793969l.001005-30.203015Zm2.6592965-.0482412v30.2311557c.2522613-.0793969.4502512-.1266331.6361809-.201005a49651.92061444 49651.92061444 0 0 1 27.5819095-11.3829146c.4305112-.1234463.7013139-.5486237.6311558-.9909547-.0180904-4.9025126-.0100502-9.8060302-.0130653-14.7095478 0-.2502512-.0311558-.5025125-.0532664-.8361809-.3788944.1145729-.6743718.1949749-.963819.2934674-6.2981575 2.1360134-12.5926299 4.2730318-18.8834171 6.4110552-1.196985.4020101-1.5135679.316583-2.3115578-.6582914-1.918928-2.359129-3.8348409-4.720268-5.7477387-7.0834171-.2562814-.3155779-.5165829-.6291457-.880402-1.0723618l.0040201-.001005ZM13.7417085 10.0633167c.3778895.1236181.5678392.1949749.7628141.2482412 8.3752094 2.3095478 16.7551089 4.6123953 25.1396985 6.9085427.4751484.1070164.9697062.0914534 1.4371859-.0452261 6.2130654-1.6891122 12.4221106-3.3939699 18.6271357-5.1145729 2.3115578-.6361809 4.6140704-1.2763819 7.0733668-1.9577889-.322613-.118593-.4864321-.1919598-.6572864-.240201-8.4381909-2.38592966-16.8783919-4.76549415-25.320603-7.13869348-.3757854-.09031089-.768637-.08095728-1.1396985.02713567-7.5865997 2.1239531-15.1701842 4.25929649-22.7507538 6.40603011-1.0050251.2824121-2 .5718593-3.1718593.9045227v.00201Zm24.2331659 9.4663317c-.237186-.0904523-.4020101-.1688443-.5698493-.2160804-9.161139-2.5232831-18.320938-5.0502513-27.47939696-7.5809046-.36002588-.1589366-.78174859-.014571-.96884422.3316583-1.70854271 2.320603-3.44924623 4.6231156-5.17487437 6.9346734a5.21507072 5.21507072 0 0 0-.29145729.4914573.8040157.8040157 0 0 0 .12261307.0884422A33967.63032474 33967.63032474 0 0 1 30 28.5628142c.5025126.1718593.7085427-.0552764.9678392-.3768844 1.7112228-2.1226131 3.4271357-4.2415411 5.1477387-6.3567839l1.8582914-2.2944724.0010051-.0050251Zm4.6070351-.0422111c.2010051.2633166.3296483.4532663.476382.6331658 2.162814 2.6683417 4.3386934 5.3266332 6.4783919 8.0110553.2560968.4299893.8052109.5823241 1.2462312.3457287 8.5440536-2.9212731 17.0938023-5.8264657 25.6492462-8.7155779.2140704-.0723618.4201005-.1658292.681407-.2693468-.1849246-.2673366-.3236181-.482412-.4773869-.6874371-1.6331658-2.1829146-3.2884422-4.3497488-4.8874372-6.556784-.2590331-.4830859-.8470134-.6843409-1.3477387-.4613065-7.5892797 2.1159129-15.1835846 4.2140704-22.7829145 6.2944724-1.6572865.4572864-3.316583.9236181-5.0341709 1.4070351l-.0020101-.001005Z" fill="#000" fill-rule="nonzero"/>
        <path d="M38.9527638 22.5216082v30.201005c-.3015075-.1075377-.5437186-.1829146-.7768844-.278392-9.0961474-3.7554439-18.1939699-7.5075377-27.2934673-11.2562814-.5293345-.145463-.8669889-.6629411-.7869347-1.2060301.0271357-4.8241206.0140703-9.6482412.0160804-14.4723618 0-.277387.0231156-.5547739.039196-.9316583.4090452.1266331.7276382.2170854 1.041206.3236181a76762.28659025 76762.28659025 0 0 1 18.7336683 6.361809c1.3155779.4462312 1.5879397.3618091 2.4874372-.7457286a307972.3703192 307972.3703192 0 0 1 5.996985-7.3879397c.1467336-.1809046.3105527-.3487438.5437185-.6090453M41.6110553 22.474372c.3648241.4432161.6241206.7567839.880402 1.0723618a53313.17804153 53313.17804153 0 0 1 5.7477387 7.0834171c.7929648.9748744 1.1055276 1.0643216 2.3115578.6582914 6.2981574-2.1360134 12.5926298-4.2730318 18.8834171-6.4110552.2894472-.1005026.5849246-.1788945.963819-.2934674.0221106.3366834.0522614.5869347.0532664.8361809 0 4.9025126-.0050251 9.8060302.0130653 14.7085427.0701581.4423311-.2006446.8675085-.6311558.9909548-9.19933 3.7815746-18.3932998 7.5758794-27.5819095 11.3829146-.1859297.0773869-.3849246.1236181-.6371859.201005l-.0030151-30.2291457ZM13.7417085 10.0633167c1.1718593-.3356784 2.1708543-.6251256 3.1718593-.9045226a19089.38369055 19089.38369055 0 0 1 22.7517588-6.40603016c.3710615-.10809295.7639131-.11744656 1.1396985-.02713567 8.4422111 2.36515913 16.8824121 4.74371859 25.320603 7.13567843.1708543.0482412.3346734.121608.6572865.240201-2.4603015.681407-4.7668342 1.321608-7.0743719 1.9577889-6.2077052 1.7112228-12.4167504 3.4167504-18.6271357 5.1165829-.4674657.1367673-.9620459.152331-1.4371859.0452262-8.3845896-2.2840871-16.7644891-4.5869347-25.1396985-6.9085428-.1939698-.0532663-.3849246-.1246231-.761809-.2482412" fill="#FFF"/>
        <path d="m37.9738693 19.5316584-1.8582914 2.2944724c-1.7165829 2.1179229-3.4324958 4.2368509-5.1477387 6.3567839-.2592965.321608-.4663317.5487437-.9688442.3768844a9624.4883016 9624.4883016 0 0 0-26.3869347-8.9829146.84823055.84823055 0 0 1-.12261306-.0884422 5.14170714 5.14170714 0 0 1 .29246231-.4914572c1.72462311-2.3115578 3.46231156-4.6120604 5.17487437-6.9346734.18709563-.3462293.60881834-.490595.96884422-.3316583C19.081407 14.2706869 28.240871 16.7983251 37.4040201 19.313568c.1708543.0472361.3326633.1256281.5698492.2160804M42.5819095 19.4844222c1.7226131-.481407 3.3768845-.9477387 5.0341709-1.4070351a24377.74533768 24377.74533768 0 0 0 22.7829146-6.2944724c.5007253-.2230344 1.0887056-.0217794 1.3477387.4613065 1.5989949 2.2110553 3.2552764 4.3738694 4.8874372 6.556784.1537688.201005.2924623.4201005.4773869.6874371-.2603015.1005025-.4673367.2010051-.681407.2693468-8.5507538 2.9011725-17.1005026 5.8063651-25.6492463 8.7155779-.4410203.2365954-.9901343.0842605-1.2462311-.3457287-2.1396985-2.6864321-4.3155779-5.3437186-6.478392-8.0110553-.1457286-.1798995-.279397-.3708542-.4763819-.6331658" fill="#FFF"/>
      </g>
    </g>
    <path fill="#FFF" d="m67.6271357 72.5809045 3.9778894 2.401005-1.0552764-4.522613 3.517588-3.0442211-4.6231156-.3929648-1.8170854-4.2693468-1.8090452 4.2673367-4.6231156.3919598 3.5175879 3.0442211-1.0552764 4.5226131zM134.561809 72.5809045l3.977889 2.401005-1.055276-4.522613 3.517588-3.0442211-4.623116-.3929648-1.817085-4.2693468-1.809045 4.2673367-4.623116.3919598 3.517588 3.0442211-1.055276 4.5226131zM81.2904523 59.8271357l3.9778894 2.401005-1.0552764-4.5226131 3.517588-3.0442211-4.6231156-.3929648-1.8170854-4.2693467-1.8090453 4.2673367-4.6231155.3919598 3.5175879 3.0442211-1.0552764 4.522613zM120.898492 59.8271357l3.97789 2.401005-1.055276-4.5226131 3.517587-3.0442211-4.623115-.3929648-1.817086-4.2693467-1.809045 4.2673367-4.623115.3919598 3.517588 3.0442211-1.055277 4.522613zM100.858291 50.7648241l3.97789 2.401005-1.055276-4.522613 3.517587-3.0442211-4.623115-.3929648-1.817086-4.2693468-1.8090448 4.2673367-4.6231155.3919598 3.5175879 3.0442211-1.0552764 4.5226131z"/>
  </g>
</svg>